<svg id="Layer_1" data-name="Layer 1" xmlns="http://www.w3.org/2000/svg" viewBox="0 0 1013 223.5"><defs><style>.cls-1{fill:#fff;stroke:#fff;stroke-miterlimit:10;stroke-width:3px;}</style></defs><circle class="cls-1" cx="695.8" cy="204.6" r="12.6"/><path class="cls-1" d="M3.86,5.5h141.5V16.7H16.86V101h120.9v11.2H16.86v92.6h130V216H3.86Z" transform="translate(-2.36 1)"/><path class="cls-1" d="M176.66,5.5h13V204.8h119.4V216H176.66Z" transform="translate(-2.36 1)"/><path class="cls-1" d="M335.86,5.5V131.7c0,4.1.2,8.9.6,14.5a90.19,90.19,0,0,0,9.6,34.1,50.29,50.29,0,0,0,11.7,15,54.27,54.27,0,0,0,18.1,10.6c7.2,2.7,15.9,4,26.1,4,13,0,23.8-1.8,32.6-5.5a52.16,52.16,0,0,0,21.2-15.6,65,65,0,0,0,11.7-24.6,130.82,130.82,0,0,0,3.5-32.4V5.5h13V131.7a148.26,148.26,0,0,1-4,35.1,74.63,74.63,0,0,1-13.4,28.3c-6.3,8.1-14.7,14.4-25.2,19S417.76,221,402,221c-12.4,0-23-1.6-31.8-4.7a67.06,67.06,0,0,1-22-12.2,58.5,58.5,0,0,1-13.7-17.2,97.2,97.2,0,0,1-10.9-38.8c-.4-6.2-.6-11.6-.6-16.4V5.5Z" transform="translate(-2.36 1)"/><path class="cls-1" d="M591.86,204.9h.6L665.26,5.5h13l-78.8,210.6h-15L506.06,5.5h13.6Z" transform="translate(-2.36 1)"/><path class="cls-1" d="M765.26,5.5h13V216.1h-13Z" transform="translate(-2.36 1)"/><path class="cls-1" d="M1013.86,110.8a134.62,134.62,0,0,1-6.8,43.2,103,103,0,0,1-19.6,35.1,90.44,90.44,0,0,1-31.4,23.4c-12.4,5.7-26.5,8.5-42.2,8.5s-29.8-2.8-42.3-8.5A91.17,91.17,0,0,1,840,189.1a103,103,0,0,1-19.6-35.1,140.13,140.13,0,0,1,0-86.4A103,103,0,0,1,840,32.5,91.77,91.77,0,0,1,871.56,9c12.5-5.7,26.6-8.5,42.3-8.5s29.8,2.8,42.2,8.5a92,92,0,0,1,31.4,23.5,103,103,0,0,1,19.6,35.1A134.62,134.62,0,0,1,1013.86,110.8Zm-187.3,0a121.14,121.14,0,0,0,5.9,38.3,92.46,92.46,0,0,0,17.1,31.4A82.81,82.81,0,0,0,877,201.9c10.8,5.3,23.1,8,36.9,8s26-2.7,36.7-8a82.44,82.44,0,0,0,27.3-21.4A92.46,92.46,0,0,0,995,149.1a127.07,127.07,0,0,0,0-76.7A92.46,92.46,0,0,0,977.86,41a83.75,83.75,0,0,0-27.3-21.4c-10.7-5.3-23-8-36.7-8s-26,2.7-36.9,8A82.81,82.81,0,0,0,849.56,41a92.46,92.46,0,0,0-17.1,31.4A128.25,128.25,0,0,0,826.56,110.8Z" transform="translate(-2.36 1)"/></svg>