<?xml version="1.0" encoding="utf-8"?>
<!-- Generator: Adobe Illustrator 25.0.1, SVG Export Plug-In . SVG Version: 6.00 Build 0)  -->
<svg version="1.1" id="Layer_1" xmlns="http://www.w3.org/2000/svg" xmlns:xlink="http://www.w3.org/1999/xlink" x="0px" y="0px"
	 viewBox="0 0 1010 220.6" style="enable-background:new 0 0 1010 220.6;" xml:space="preserve">
<style type="text/css">
	.st0{fill:#FFFFFF;}
</style>
<circle class="st0" cx="694.3" cy="203.1" r="12.6"/>
<path class="st0" d="M0,5h141.6v11.2H13v84.3h120.9v11.2H13v92.6H143v11.2H0L0,5z"/>
<path class="st0" d="M172.8,5h13v199.3h119.4v11.2H172.8V5z"/>
<path class="st0" d="M332,5v126.2c0,4.1,0.2,8.9,0.6,14.4c0.9,11.9,4.2,23.4,9.6,34.1c2.9,5.7,6.9,10.8,11.6,15
	c5.3,4.6,11.5,8.2,18.1,10.6c7.2,2.7,15.9,4,26.1,4c13,0,23.8-1.8,32.6-5.5c8.3-3.3,15.6-8.6,21.2-15.5c5.6-7.3,9.6-15.7,11.7-24.6
	c2.5-10.6,3.7-21.5,3.5-32.4V5h13v126.2c0.1,11.8-1.3,23.6-4,35.1c-2.4,10.3-7,19.9-13.4,28.3c-6.3,8.1-14.7,14.4-25.2,19
	c-10.5,4.6-23.6,6.9-39.4,6.9c-12.4,0-23-1.6-31.9-4.7c-8-2.7-15.5-6.8-22-12.2c-5.6-4.8-10.3-10.7-13.7-17.3
	c-6.3-12-10-25.2-10.9-38.8c-0.4-6.2-0.6-11.7-0.6-16.4V5H332z"/>
<path class="st0" d="M588,204.3h0.6L661.4,5h13l-78.7,210.6h-15L502.2,5h13.6L588,204.3z"/>
<path class="st0" d="M761.4,5h13v210.6h-13V5z"/>
<path class="st0" d="M1010,110.3c0.1,14.7-2.2,29.3-6.8,43.2c-4.2,12.9-10.8,24.8-19.6,35.1c-8.6,10-19.4,18-31.4,23.4
	c-12.4,5.7-26.4,8.5-42.2,8.5s-29.8-2.9-42.3-8.5c-12.1-5.4-22.9-13.4-31.6-23.4c-8.8-10.3-15.4-22.2-19.6-35.1
	c-4.6-13.9-6.9-28.5-6.8-43.2c-0.1-14.7,2.2-29.3,6.8-43.2c4.2-12.9,10.9-24.8,19.6-35.1c8.7-10,19.4-18,31.5-23.5
	C880.2,2.9,894.3,0,910,0c15.7,0,29.8,2.8,42.2,8.5C964.3,14,975,22,983.6,32c8.8,10.3,15.5,22.2,19.7,35
	C1007.9,81,1010.1,95.6,1010,110.3z M822.8,110.3c-0.1,13,1.9,26,5.9,38.3c3.6,11.5,9.4,22.1,17.1,31.4c7.5,9,16.9,16.3,27.4,21.4
	c10.8,5.3,23.1,8,36.9,8s26-2.7,36.7-8c10.5-5.1,19.8-12.4,27.3-21.4c7.7-9.3,13.5-19.9,17.1-31.4c4-12.4,6-25.3,5.9-38.3
	c0.1-13-1.9-25.9-5.9-38.3c-3.6-11.5-9.5-22.1-17.1-31.4c-7.5-9-16.8-16.2-27.3-21.4c-10.7-5.3-23-8-36.7-8c-13.8,0-26,2.7-36.9,8
	c-10.6,5.1-19.9,12.4-27.4,21.4c-7.7,9.3-13.5,19.9-17.1,31.4C824.7,84.3,822.7,97.3,822.8,110.3z"/>
</svg>
