<svg width="132" height="24" viewBox="0 0 132 24" fill="none" xmlns="http://www.w3.org/2000/svg">
<mask id="mask0_72_1189" style="mask-type:luminance" maskUnits="userSpaceOnUse" x="0" y="0" width="130" height="24">
<path d="M130 0H0V24H130V0Z" fill="white"/>
</mask>
<g mask="url(#mask0_72_1189)">
<path d="M40.7535 23.9281C39.5657 23.9281 38.5033 23.7015 37.5665 23.248C36.6463 22.8115 35.9018 22.1903 35.333 21.3844L36.4872 20.2259C36.9558 20.864 37.5498 21.3592 38.2691 21.7118C38.9886 22.0644 39.8334 22.2407 40.8038 22.2407C42.1422 22.2407 43.2046 21.8797 43.9909 21.1578C44.7939 20.4358 45.1956 19.4536 45.1956 18.2112V14.5854L45.5468 11.8906L45.1956 9.2211V6.17378H46.9522V18.2112C46.9522 19.3529 46.6929 20.3519 46.1742 21.2081C45.6556 22.0644 44.9277 22.7277 43.9909 23.1977C43.0707 23.6845 41.9917 23.9281 40.7535 23.9281ZM40.879 17.8845C39.7916 17.8845 38.8128 17.6243 37.9429 17.1038C37.0729 16.5833 36.387 15.8698 35.8851 14.9631C35.3831 14.0565 35.1321 13.0323 35.1321 11.8906C35.1321 10.7489 35.3748 9.73318 35.86 8.84332C36.362 7.93669 37.0478 7.22314 37.9179 6.70266C38.7877 6.18218 39.7666 5.92194 40.8539 5.92194C41.7741 5.92194 42.5938 6.09822 43.3133 6.45082C44.0496 6.80339 44.635 7.30708 45.0701 7.96187C45.5218 8.59988 45.7978 9.35541 45.8982 10.2285V13.578C45.7978 14.4343 45.5218 15.1898 45.0701 15.8446C44.6183 16.4826 44.0329 16.9863 43.3133 17.3557C42.5938 17.7082 41.7825 17.8845 40.879 17.8845ZM41.2054 16.1972C42.0251 16.1972 42.7362 16.0209 43.3384 15.6683C43.9575 15.3157 44.4344 14.8204 44.7688 14.1824C45.1202 13.5276 45.2958 12.7637 45.2958 11.8906C45.2958 11.0344 45.1202 10.2872 44.7688 9.64923C44.4344 9.01123 43.9575 8.50753 43.3384 8.13816C42.7193 7.7688 42 7.58412 41.1803 7.58412C40.3604 7.58412 39.6244 7.7688 38.9719 8.13816C38.3361 8.50753 37.8342 9.01123 37.466 9.64923C37.1146 10.2872 36.9391 11.0344 36.9391 11.8906C36.9391 12.7301 37.123 13.4772 37.4911 14.132C37.8592 14.7869 38.3612 15.2989 38.9969 15.6683C39.6327 16.0209 40.3687 16.1972 41.2054 16.1972Z" fill="white"/>
<path d="M49.6923 18.0104V6.17378H51.4491V18.0104H49.6923ZM51.4491 11.1099L50.7212 10.7825C50.7212 9.28825 51.081 8.10458 51.8002 7.23152C52.5365 6.35846 53.5403 5.92194 54.8117 5.92194C55.3974 5.92194 55.9327 6.03107 56.4179 6.24933C56.903 6.45082 57.3548 6.77822 57.773 7.23152L56.6186 8.46557C56.3342 8.14655 56.0164 7.91989 55.665 7.78558C55.3303 7.65127 54.9455 7.58412 54.5106 7.58412C53.6072 7.58412 52.8709 7.88631 52.3022 8.49075C51.7334 9.07839 51.4491 9.95145 51.4491 11.1099Z" fill="white"/>
<path d="M63.869 18.2623C62.6809 18.2623 61.6186 17.9937 60.6817 17.4564C59.7448 16.9191 59.0003 16.1804 58.4482 15.2402C57.9129 14.3 57.6452 13.2422 57.6452 12.0669C57.6452 10.9085 57.9129 9.86749 58.4482 8.94406C58.9836 8.00385 59.7114 7.2651 60.6316 6.72784C61.5517 6.19058 62.5807 5.92194 63.7182 5.92194C64.7891 5.92194 65.7343 6.16538 66.554 6.65228C67.3907 7.13919 68.0432 7.81916 68.5115 8.69222C68.9967 9.54849 69.2394 10.5391 69.2394 11.664C69.2394 11.7983 69.231 11.9578 69.2143 12.1425C69.1976 12.3104 69.164 12.5119 69.1139 12.7469H58.8998V11.2359H68.1603L67.5329 11.7899C67.5496 10.9168 67.399 10.1697 67.081 9.5485C66.78 8.91048 66.3365 8.4236 65.751 8.0878C65.1823 7.7352 64.4878 7.55892 63.6681 7.55892C62.8147 7.55892 62.0704 7.7436 61.4346 8.11298C60.7988 8.48235 60.2969 9.00283 59.9288 9.6744C59.5776 10.3292 59.4018 11.1099 59.4018 12.0166C59.4018 12.9232 59.586 13.7207 59.9538 14.4091C60.3386 15.0975 60.8656 15.6347 61.535 16.0209C62.2209 16.407 63.0073 16.6001 63.894 16.6001C64.6133 16.6001 65.2741 16.4742 65.8765 16.2224C66.4789 15.9537 66.9892 15.5592 67.4074 15.0387L68.5365 16.1972C67.9845 16.852 67.2986 17.364 66.4789 17.7334C65.6756 18.086 64.8058 18.2623 63.869 18.2623Z" fill="white"/>
<path d="M76.5699 18.2623C75.382 18.2623 74.3197 17.9937 73.3828 17.4564C72.446 16.9191 71.7014 16.1804 71.1494 15.2402C70.6138 14.3 70.3461 13.2422 70.3461 12.0669C70.3461 10.9085 70.6138 9.86749 71.1494 8.94406C71.6847 8.00385 72.4124 7.2651 73.3325 6.72784C74.2527 6.19058 75.2816 5.92194 76.4193 5.92194C77.49 5.92194 78.4355 6.16538 79.2552 6.65228C80.0916 7.13919 80.7441 7.81916 81.2126 8.69222C81.6979 9.54849 81.9405 10.5391 81.9405 11.664C81.9405 11.7983 81.9321 11.9578 81.9152 12.1425C81.8985 12.3104 81.8651 12.5119 81.815 12.7469H71.601V11.2359H80.8612L80.2338 11.7899C80.2507 10.9168 80.1 10.1697 79.7822 9.5485C79.4811 8.91048 79.0376 8.4236 78.4522 8.0878C77.8832 7.7352 77.189 7.55892 76.3692 7.55892C75.5159 7.55892 74.7713 7.7436 74.1358 8.11298C73.5 8.48235 72.998 9.00283 72.6299 9.6744C72.2785 10.3292 72.1029 11.1099 72.1029 12.0166C72.1029 12.9232 72.2869 13.7207 72.655 14.4091C73.0398 15.0975 73.5668 15.6347 74.236 16.0209C74.9221 16.407 75.7084 16.6001 76.5949 16.6001C77.3144 16.6001 77.9753 16.4742 78.5777 16.2224C79.1798 15.9537 79.6901 15.5592 80.1085 15.0387L81.2377 16.1972C80.6856 16.852 79.9998 17.364 79.1798 17.7334C78.3768 18.086 77.5067 18.2623 76.5699 18.2623Z" fill="white"/>
<path d="M92.4113 18.0104V11.0596C92.4113 10.0186 92.1019 9.17912 91.4828 8.54111C90.8804 7.88631 90.0774 7.55892 89.0735 7.55892C88.3876 7.55892 87.7855 7.71003 87.2668 8.01225C86.7482 8.31446 86.3381 8.72579 86.037 9.24628C85.736 9.76676 85.5854 10.3628 85.5854 11.0344L84.7822 10.5811C84.7822 9.6912 84.9914 8.8937 85.4096 8.18853C85.8278 7.48336 86.3884 6.92932 87.091 6.52637C87.8105 6.12342 88.6303 5.92194 89.5504 5.92194C90.4539 5.92194 91.2569 6.1402 91.9597 6.57673C92.6623 7.01326 93.206 7.6009 93.5908 8.33964C93.9923 9.07839 94.1932 9.88429 94.1932 10.7573V18.0104H92.4113ZM83.8286 18.0104V6.17378H85.5854V18.0104H83.8286Z" fill="white"/>
<path d="M98.2608 18.0102V4.35975C98.2608 3.58742 98.428 2.90745 98.7627 2.31981C99.0974 1.71539 99.5574 1.24528 100.143 0.909487C100.745 0.556904 101.44 0.380615 102.226 0.380615C102.811 0.380615 103.33 0.481352 103.782 0.682827C104.25 0.884303 104.677 1.16973 105.062 1.5391L103.882 2.72276C103.648 2.4877 103.389 2.31981 103.104 2.21908C102.837 2.10155 102.535 2.04279 102.201 2.04279C101.515 2.04279 100.979 2.26105 100.595 2.69759C100.227 3.11731 100.043 3.68818 100.043 4.41012V18.0102H98.2608ZM95.2994 7.76014V6.17351H106.166V7.76014H95.2994ZM105.187 18.0102V6.17351H106.969V18.0102H105.187ZM106.066 5.16565C105.714 5.16565 105.421 5.04812 105.187 4.81307C104.97 4.56123 104.861 4.26741 104.861 3.93162C104.861 3.57904 104.97 3.28522 105.187 3.05016C105.421 2.8151 105.714 2.69759 106.066 2.69759C106.417 2.69759 106.71 2.8151 106.944 3.05016C107.178 3.28522 107.295 3.57904 107.295 3.93162C107.295 4.26741 107.178 4.56123 106.944 4.81307C106.71 5.04812 106.417 5.16565 106.066 5.16565Z" fill="white"/>
<path d="M113.337 18.2623C112.701 18.2623 112.09 18.1784 111.505 18.0104C110.919 17.8258 110.384 17.5739 109.899 17.2549C109.43 16.9359 109.02 16.5581 108.669 16.1216L109.798 14.9631C110.267 15.534 110.794 15.9621 111.379 16.2476C111.982 16.5162 112.651 16.6505 113.387 16.6505C114.174 16.6505 114.784 16.4994 115.219 16.1972C115.671 15.895 115.897 15.4752 115.897 14.9379C115.897 14.4343 115.738 14.0397 115.42 13.7543C115.102 13.4689 114.692 13.2422 114.19 13.0743C113.705 12.9064 113.186 12.7469 112.634 12.5958C112.082 12.4279 111.555 12.2264 111.053 11.9914C110.551 11.7395 110.141 11.3953 109.823 10.9588C109.522 10.5223 109.372 9.95145 109.372 9.24628C109.372 8.57468 109.531 7.99545 109.849 7.50856C110.183 7.00486 110.652 6.61871 111.254 6.35006C111.873 6.06465 112.601 5.92194 113.437 5.92194C114.324 5.92194 115.127 6.08145 115.846 6.40044C116.566 6.71944 117.143 7.18954 117.578 7.81076L116.449 8.94406C116.097 8.49075 115.654 8.14656 115.119 7.91151C114.6 7.65967 114.014 7.53374 113.362 7.53374C112.609 7.53374 112.032 7.68485 111.63 7.98707C111.246 8.27249 111.053 8.65024 111.053 9.12037C111.053 9.57367 111.212 9.93465 111.53 10.2033C111.848 10.4551 112.249 10.665 112.735 10.8329C113.236 10.984 113.763 11.1435 114.316 11.3114C114.868 11.4625 115.395 11.6724 115.897 11.941C116.399 12.1929 116.8 12.5454 117.101 12.9987C117.419 13.4353 117.578 14.0313 117.578 14.7869C117.578 15.8446 117.193 16.6925 116.424 17.3305C115.671 17.9517 114.642 18.2623 113.337 18.2623Z" fill="white"/>
<path d="M128.142 18.0104V11.0595C128.142 10.0186 127.832 9.1791 127.213 8.54108C126.611 7.88629 125.808 7.55889 124.804 7.55889C124.118 7.55889 123.516 7.71 122.997 8.01222C122.478 8.31444 122.069 8.72577 121.767 9.24625C121.466 9.76673 121.316 10.3628 121.316 11.0343L120.513 10.581C120.513 9.69118 120.722 8.89368 121.14 8.18851C121.558 7.48334 122.119 6.9293 122.821 6.52635C123.541 6.1234 124.36 5.92191 125.281 5.92191C126.184 5.92191 126.987 6.13178 127.69 6.55153C128.393 6.95448 128.936 7.51692 129.321 8.23888C129.723 8.96083 129.923 9.80031 129.923 10.7573V18.0104H128.142ZM119.559 18.0104V0.179871H121.316V18.0104H119.559Z" fill="white"/>
<path d="M0.0761719 11.8511C0.0761719 18.2969 5.28528 23.5742 11.711 23.5742H16.9423C17.6739 23.5742 18.1821 22.8436 17.9297 22.1547L17.8984 22.0694C16.7778 19.011 19.0341 15.7674 22.2821 15.7674C22.8553 15.7674 23.32 15.3012 23.32 14.7262V9.48473C23.32 8.64301 22.6398 7.96067 21.8008 7.96067H17.0568C16.2178 7.96067 15.5376 8.64301 15.5376 9.48473V11.8511C15.5376 13.9519 13.8312 15.7674 11.711 15.7674C9.5909 15.7674 7.8069 14.0038 7.8069 11.8511C7.8069 10.0096 9.28064 8.01254 11.711 8.01254H14.0701C14.9091 8.01254 15.5893 7.33021 15.5893 6.48849V1.70393C15.5893 0.862215 14.9091 0.179871 14.0701 0.179871H11.711C5.28528 0.179871 0.0761719 5.40525 0.0761719 11.8511Z" fill="#00E0CA"/>
<path d="M24.8264 20.9333C24.8264 22.3713 23.6643 23.5371 22.2309 23.5371C20.7975 23.5371 19.6354 22.3713 19.6354 20.9333C19.6354 19.4953 20.7975 18.3295 22.2309 18.3295C23.6643 18.3295 24.8264 19.4953 24.8264 20.9333Z" fill="#00E0CA"/>
</g>
</svg>
