<svg width="29" height="24" viewBox="0 0 29 24" fill="none" xmlns="http://www.w3.org/2000/svg">
<path d="M5.47721 2.66602C4.01055 2.66602 2.81055 3.86602 2.81055 5.33268V18.666C2.81055 20.1327 4.01055 21.3327 5.47721 21.3327H24.1439C25.6105 21.3327 26.8105 20.1327 26.8105 18.666V5.33268C26.8105 3.86602 25.6105 2.66602 24.1439 2.66602H5.47721ZM5.47721 10.666H9.47721V13.3327H5.47721V10.666ZM17.4772 18.666H5.47721V15.9993H17.4772V18.666ZM24.1439 18.666H20.1439V15.9993H24.1439V18.666ZM24.1439 13.3327H12.1439V10.666H24.1439V13.3327Z" fill="white"/>
<path d="M5.47721 1.66602C3.45826 1.66602 1.81055 3.31373 1.81055 5.33268V18.666C1.81055 20.685 3.45826 22.3327 5.47721 22.3327H24.1439C26.1628 22.3327 27.8105 20.685 27.8105 18.666V5.33268C27.8105 3.31373 26.1628 1.66602 24.1439 1.66602H5.47721ZM6.47721 11.666H8.47721V12.3327H6.47721V11.666ZM16.4772 17.666H6.47721V16.9993H16.4772V17.666ZM23.1439 17.666H21.1439V16.9993H23.1439V17.666ZM23.1439 12.3327H13.1439V11.666H23.1439V12.3327Z" stroke="black" stroke-opacity="0.15" stroke-width="2"/>
</svg>
