<svg width="26" height="26" viewBox="0 0 26 26" fill="none" xmlns="http://www.w3.org/2000/svg">
<path fill-rule="evenodd" clip-rule="evenodd" d="M23.7508 12.9997V23.7508H13.0003C7.05943 23.7508 2.24919 18.9406 2.24919 12.9997C2.24919 7.05888 7.05943 2.24864 13.0003 2.24864C18.9411 2.24864 23.7508 7.05888 23.7508 12.9997ZM0 12.9997C0 5.82396 5.82396 0 12.9997 0C20.1755 0 26 5.82396 26 12.9997V25.9995H13.0003C5.82396 25.9995 0 20.1755 0 12.9997ZM5.174 13.5197C5.174 16.1976 6.98078 18.4599 9.85371 18.4599C12.2198 18.4599 13.8185 16.9 14.2084 14.8589H11.8686C11.5698 15.7951 10.8155 16.367 9.85371 16.367C8.39758 16.367 7.44886 15.2227 7.44886 13.5202C7.44886 11.8178 8.39813 10.6735 9.85371 10.6735C10.7899 10.6735 11.5305 11.2066 11.8429 12.0903H14.1959C13.7797 10.1011 12.1941 8.58055 9.85371 8.58055C6.96822 8.58001 5.174 10.8418 5.174 13.5197ZM17.3419 8.83999H15.132V18.2131H17.4331V13.3253C17.4331 12.4022 17.6931 11.8041 18.1349 11.4273C18.5249 11.0761 19.0318 10.8942 19.8642 10.8942H20.4491V8.72256H19.8773C18.668 8.72256 17.8624 9.16442 17.3424 9.8406V8.82633V8.83999H17.3419Z" fill="currentColor"/>
</svg>
