<svg width="26" height="26" viewBox="0 0 26 26" fill="none" xmlns="http://www.w3.org/2000/svg">
<path d="M2.33398 10.334H5.00065V5.00065H10.334V2.33398H2.33398V10.334Z" fill="white"/>
<path d="M1.33398 10.334V11.334H2.33398H5.00065H6.00065V10.334V6.00065H10.334H11.334V5.00065V2.33398V1.33398H10.334H2.33398H1.33398V2.33398V10.334Z" stroke="black" stroke-opacity="0.15" stroke-width="2"/>
<path d="M15.667 2.33398V5.00065H21.0003V10.334H23.667V2.33398H15.667Z" fill="white"/>
<path d="M15.667 1.33398H14.667V2.33398V5.00065V6.00065H15.667H20.0003V10.334V11.334H21.0003H23.667H24.667V10.334V2.33398V1.33398H23.667H15.667Z" stroke="black" stroke-opacity="0.15" stroke-width="2"/>
<path d="M15.667 2.33398V5.00065H21.0003V10.334H23.667V2.33398H15.667Z" fill="white"/>
<path d="M15.667 1.33398H14.667V2.33398V5.00065V6.00065H15.667H20.0003V10.334V11.334H21.0003H23.667H24.667V10.334V2.33398V1.33398H23.667H15.667Z" stroke="black" stroke-opacity="0.15" stroke-width="2"/>
<path d="M21.0003 20.9993H15.667V23.666H23.667V15.666H21.0003V20.9993Z" fill="white"/>
<path d="M20.0003 15.666V19.9993H15.667H14.667V20.9993V23.666V24.666H15.667H23.667H24.667V23.666V15.666V14.666H23.667H21.0003H20.0003V15.666Z" stroke="black" stroke-opacity="0.15" stroke-width="2"/>
<path d="M21.0003 20.9993H15.667V23.666H23.667V15.666H21.0003V20.9993Z" fill="white"/>
<path d="M20.0003 15.666V19.9993H15.667H14.667V20.9993V23.666V24.666H15.667H23.667H24.667V23.666V15.666V14.666H23.667H21.0003H20.0003V15.666Z" stroke="black" stroke-opacity="0.15" stroke-width="2"/>
<path d="M5.00065 15.666H2.33398V23.666H10.334V20.9993H5.00065V15.666Z" fill="white"/>
<path d="M6.00065 15.666V14.666H5.00065H2.33398H1.33398V15.666V23.666V24.666H2.33398H10.334H11.334V23.666V20.9993V19.9993H10.334H6.00065V15.666Z" stroke="black" stroke-opacity="0.15" stroke-width="2"/>
<path d="M5.00065 15.666H2.33398V23.666H10.334V20.9993H5.00065V15.666Z" fill="white"/>
<path d="M6.00065 15.666V14.666H5.00065H2.33398H1.33398V15.666V23.666V24.666H2.33398H10.334H11.334V23.666V20.9993V19.9993H10.334H6.00065V15.666Z" stroke="black" stroke-opacity="0.15" stroke-width="2"/>
</svg>
