<svg width="34" height="24" viewBox="0 0 34 24" fill="none" xmlns="http://www.w3.org/2000/svg">
<path d="M26.333 10.8889H15.6663V17.5556H26.333V10.8889ZM31.6663 19.7778V4.2C31.6663 2.97778 30.4663 2 28.9997 2H4.99967C3.53301 2 2.33301 2.97778 2.33301 4.2V19.7778C2.33301 21 3.53301 22 4.99967 22H28.9997C30.4663 22 31.6663 21 31.6663 19.7778ZM28.9997 19.8H4.99967V4.18889H28.9997V19.8Z" fill="white"/>
<path d="M27.333 10.8889V9.88889H26.333H15.6663H14.6663V10.8889V17.5556V18.5556H15.6663H26.333H27.333V17.5556V10.8889ZM32.6663 19.7778V4.2C32.6663 2.25092 30.8262 1 28.9997 1H4.99967C3.1732 1 1.33301 2.25092 1.33301 4.2V19.7778C1.33301 21.7153 3.15918 23 4.99967 23H28.9997C30.8402 23 32.6663 21.7153 32.6663 19.7778ZM27.9997 18.8H5.99967V5.18889H27.9997V18.8Z" stroke="black" stroke-opacity="0.15" stroke-width="2"/>
</svg>
