<svg width="30" height="24" viewBox="0 0 30 24" fill="none" xmlns="http://www.w3.org/2000/svg"><path d="M26.9994 0H2.99943C1.53276 0 0.332764 1.2 0.332764 2.66667V6.66667H2.99943V2.66667H26.9994V21.3333H17.6661V24H26.9994C28.4661 24 29.6661 22.8 29.6661 21.3333V2.66667C29.6661 1.2 28.4661 0 26.9994 0ZM0.332764 20V24H4.33276C4.33276 21.7867 2.5461 20 0.332764 20ZM0.332764 14.6667V17.3333C4.01276 17.3333 6.99943 20.32 6.99943 24H9.6661C9.6661 18.84 5.49276 14.6667 0.332764 14.6667ZM0.332764 9.33333V12C6.95943 12 12.3328 17.3733 12.3328 24H14.9994C14.9994 15.8933 8.4261 9.33333 0.332764 9.33333Z" fill="white"/></svg>