<svg width="39" height="44" viewBox="0 0 39 44" fill="none" xmlns="http://www.w3.org/2000/svg">
<path d="M18.8946 5.94713C19.1172 5.57382 19.6579 5.57382 19.8806 5.94713L37.2472 35.0629C37.4754 35.4455 37.1997 35.931 36.7542 35.931H2.02096C1.57542 35.931 1.29973 35.4455 1.52795 35.0629L18.8946 5.94713Z" fill="#00E0CA" stroke="white" stroke-width="1.14808"/>
<path d="M19.7076 30.8333C18.4402 30.8333 17.4758 30.5486 16.8145 29.9791C16.1532 29.4005 15.8225 28.5739 15.8225 27.4993V20.8174H17.8202V27.4993C17.8202 28.6565 18.4356 29.2352 19.6663 29.2352C20.2817 29.2352 20.7455 29.0744 21.0578 28.753C21.3701 28.4315 21.5262 28.0044 21.5262 27.4717V20.8174H23.5239V27.4993C23.5239 28.5647 23.1978 29.3867 22.5457 29.9653C21.9028 30.544 20.9568 30.8333 19.7076 30.8333Z" fill="white"/>
</svg>
