<svg width="37" height="22" viewBox="0 0 37 22" fill="none" xmlns="http://www.w3.org/2000/svg">
<rect x="0.55437" y="0.743823" width="35.4797" height="20.5117" rx="0.55437" fill="#F2CB00" stroke="white" stroke-width="1.10874"/>
<path d="M9.78446 16.291V6.77803H13.9622C15.0443 6.77803 15.8737 7.07517 16.4502 7.66946C17.0179 8.25487 17.3017 8.97777 17.3017 9.83815C17.3017 10.7429 17.0179 11.4702 16.4502 12.0202C15.8825 12.5701 15.1064 12.8451 14.1219 12.8451H11.7802V16.291H9.78446ZM11.7802 8.45444V11.2751H13.7759C14.2726 11.2751 14.654 11.1509 14.9201 10.9025C15.1862 10.6453 15.3193 10.295 15.3193 9.85146C15.3193 9.40796 15.1862 9.06647 14.9201 8.82698C14.654 8.57862 14.2815 8.45444 13.8025 8.45444H11.7802ZM25.4685 16.291L25.402 15.0137H25.3754C24.7899 15.9983 23.8985 16.4906 22.7011 16.4906C21.3085 16.4906 20.1953 16.0294 19.3616 15.1069C18.5366 14.1844 18.1242 13.0047 18.1242 11.5678C18.1242 9.93572 18.6431 8.64071 19.6809 7.68276C20.4792 6.95543 21.4992 6.59176 22.741 6.59176C23.9029 6.59176 24.8299 6.88003 25.5217 7.45658C26.2224 8.03312 26.6526 8.8048 26.8123 9.77163H24.923C24.8077 9.29265 24.5682 8.91124 24.2045 8.62741C23.8409 8.3347 23.3663 8.18835 22.7809 8.18835C21.9205 8.18835 21.2553 8.50323 20.7852 9.13299C20.3239 9.76276 20.0933 10.5744 20.0933 11.5678C20.0933 12.5523 20.3328 13.3595 20.8118 13.9893C21.2996 14.619 21.9471 14.9339 22.7543 14.9339C23.4639 14.9339 24.0493 14.7166 24.5105 14.282C24.9718 13.8385 25.2024 13.3373 25.2024 12.7785V12.7253H22.914V11.2352H26.9187V16.291H25.4685Z" fill="white"/>
</svg>
