<svg width="31" height="32" viewBox="0 0 31 32" fill="none" xmlns="http://www.w3.org/2000/svg">
<path d="M29.9858 16.0001C29.9858 24.1136 23.4085 30.6909 15.295 30.6909C7.18147 30.6909 0.604175 24.1136 0.604175 16.0001C0.604175 7.88655 7.18147 1.30925 15.295 1.30925C23.4085 1.30925 29.9858 7.88655 29.9858 16.0001Z" fill="#9766FF" stroke="white" stroke-width="1.10874"/>
<path d="M11.21 21.2969V14.9371H9.14773V13.7397C10.5137 13.6865 11.2809 13.1454 11.4495 12.1165H13.0328V21.2969H11.21ZM17.9547 21.4964C16.9347 21.4964 16.0876 21.2437 15.4135 20.7381C14.7482 20.2325 14.3712 19.5406 14.2825 18.6625H16.0654C16.1452 19.0971 16.3492 19.4253 16.6774 19.6471C17.0145 19.8688 17.4269 19.9797 17.9148 19.9797C18.4204 19.9797 18.8284 19.82 19.1388 19.5007C19.4493 19.1725 19.6045 18.7601 19.6045 18.2634C19.6045 17.74 19.4448 17.332 19.1255 17.0393C18.8151 16.7377 18.4115 16.5869 17.9148 16.5869C17.2495 16.5869 16.7528 16.7777 16.4246 17.1591H14.6817L15.5598 12.183H20.935V13.6865H16.8238L16.4779 15.6556H16.5045C16.948 15.2742 17.5777 15.0835 18.3938 15.0835C19.2364 15.0835 19.9593 15.3762 20.5625 15.9616C21.1745 16.547 21.4805 17.3143 21.4805 18.2634C21.4805 19.2036 21.1434 19.9797 20.4693 20.5917C19.8041 21.1949 18.9659 21.4964 17.9547 21.4964Z" fill="white"/>
</svg>
