<svg width="26" height="26" viewBox="0 0 26 26" fill="none" xmlns="http://www.w3.org/2000/svg">
<path d="M20.9208 14.0397C20.9608 13.7064 20.9875 13.3597 20.9875 12.9997C20.9875 12.6397 20.9608 12.3064 20.9208 11.9597L23.1608 10.1997C23.3608 10.0397 23.4142 9.75971 23.2808 9.51971L21.1475 5.83971C21.0275 5.61305 20.7342 5.51971 20.5075 5.61305L17.8542 6.67971C17.3075 6.25305 16.7075 5.90638 16.0542 5.63971L15.6542 2.81305C15.6275 2.55971 15.4008 2.37305 15.1342 2.37305H10.8675C10.6008 2.37305 10.3875 2.55971 10.3475 2.81305L9.94749 5.63971C9.30749 5.90638 8.70749 6.26638 8.14749 6.67971L5.49416 5.61305C5.25416 5.51971 4.97416 5.61305 4.85416 5.83971L2.72082 9.51971C2.58749 9.74638 2.65416 10.0397 2.84083 10.1997L5.08083 11.9597C5.04083 12.293 5.01416 12.653 5.01416 12.9997C5.01416 13.3464 5.04083 13.693 5.08083 14.0397L2.84083 15.7997C2.64083 15.9597 2.58749 16.2397 2.72082 16.4797L4.85416 20.1597C4.97416 20.3864 5.26749 20.4797 5.49416 20.3864L8.14749 19.3197C8.69416 19.7464 9.29416 20.093 9.94749 20.3597L10.3475 23.1864C10.3742 23.4397 10.6008 23.6264 10.8675 23.6264H15.1342C15.4008 23.6264 15.6142 23.4397 15.6542 23.1864L16.0542 20.3597C16.6942 20.093 17.2942 19.733 17.8542 19.3197L20.5075 20.3864C20.7475 20.4797 21.0275 20.3864 21.1475 20.1597L23.2808 16.4797C23.4008 16.253 23.3475 15.9597 23.1608 15.7997L20.9208 14.0397ZM13.0008 16.7197C10.9475 16.7197 9.26749 15.053 9.26749 12.9864C9.26749 10.933 10.9342 9.25305 13.0008 9.25305C15.0542 9.25305 16.7342 10.9197 16.7342 12.9864C16.7342 15.0397 15.0675 16.7197 13.0008 16.7197Z" fill="white"/>
<path d="M23.7786 10.986L23.7787 10.9861L23.7855 10.9806C24.3879 10.4987 24.5117 9.67616 24.155 9.03407L24.1505 9.02609L24.146 9.01818L22.0197 5.35037C21.6402 4.66078 20.7995 4.4143 20.1317 4.68633L17.9936 5.54586C17.6663 5.32505 17.3239 5.12749 16.967 4.9532L16.6462 2.68622C16.5492 1.87617 15.8427 1.37305 15.1342 1.37305H10.8675C10.1087 1.37305 9.47647 1.91775 9.35973 2.65708L9.35848 2.665L9.35736 2.67293L9.03384 4.95913C8.67999 5.13613 8.34135 5.33538 8.01793 5.54985L5.86716 4.68522L5.86718 4.68516L5.8566 4.68104C5.18705 4.42066 4.36253 4.65785 3.98182 5.3506L1.85686 9.01615C1.45959 9.69548 1.66895 10.5123 2.19003 10.959L2.20623 10.9729L2.223 10.986L4.03462 12.4094C4.02168 12.604 4.01416 12.8026 4.01416 12.9997C4.01416 13.1991 4.02186 13.3961 4.03494 13.5897L2.223 15.0134L2.22298 15.0134L2.21613 15.0188C1.61375 15.5008 1.48995 16.3233 1.84667 16.9654L1.8511 16.9733L1.85568 16.9812L3.98193 20.649C4.36137 21.3386 5.20202 21.5851 5.86979 21.3132L8.00802 20.4536C8.3354 20.6744 8.67774 20.8719 9.03468 21.0462L9.35548 23.3132C9.45247 24.1233 10.159 24.6264 10.8675 24.6264H15.1342C15.893 24.6264 16.5252 24.0817 16.6419 23.3423L16.6432 23.3344L16.6443 23.3265L16.9678 21.0403C17.3217 20.8633 17.6603 20.6641 17.9837 20.4496L20.1345 21.3142L20.1345 21.3143L20.145 21.3184C20.8146 21.5788 21.6391 21.3416 22.0198 20.6488L24.146 16.9812L24.1556 16.9646L24.1646 16.9476C24.4942 16.3251 24.368 15.5173 23.8116 15.0405L23.7954 15.0266L23.7786 15.0134L21.9673 13.5902C21.9801 13.399 21.9875 13.202 21.9875 12.9997C21.9875 12.7951 21.9799 12.5997 21.967 12.4094L23.7786 10.986ZM13.0008 15.7197C11.4974 15.7197 10.2675 14.4984 10.2675 12.9864C10.2675 11.483 11.4888 10.253 13.0008 10.253C14.5042 10.253 15.7342 11.4743 15.7342 12.9864C15.7342 14.4898 14.5129 15.7197 13.0008 15.7197Z" stroke="black" stroke-opacity="0.15" stroke-width="2"/>
</svg>
