<svg width="32" height="32" viewBox="0 0 32 32" fill="none" xmlns="http://www.w3.org/2000/svg">
<g clip-path="url(#clip0_363_9540)">
<path d="M16.0889 9.77734C12.6223 9.77734 9.8667 12.5329 9.8667 15.9996C9.8667 19.4662 12.6223 22.2218 16.0889 22.2218C19.5556 22.2218 22.3111 19.4662 22.3111 15.9996C22.3111 12.5329 19.5556 9.77734 16.0889 9.77734ZM16.0889 20.444C13.6 20.444 11.6445 18.4885 11.6445 15.9996C11.6445 13.5107 13.6 11.5551 16.0889 11.5551C18.5778 11.5551 20.5334 13.5107 20.5334 15.9996C20.5334 18.4885 18.5778 20.444 16.0889 20.444Z" fill="currentColor"/>
<path d="M29.1556 13.0662L26.6667 12.2662L26.1334 10.9329L27.3778 8.62179C27.6445 8.08845 27.5556 7.37734 27.1112 6.9329L24.9778 4.79957C24.5334 4.35512 23.8223 4.26623 23.2889 4.5329L20.9778 5.77734L19.6445 5.24401L18.8445 2.75512C18.6667 2.22179 18.1334 1.77734 17.5112 1.77734H14.4889C13.8667 1.77734 13.3334 2.22179 13.2445 2.84401L12.4445 5.3329C11.9112 5.42179 11.4667 5.59957 11.0223 5.86623L8.71117 4.62179C8.17783 4.35512 7.46672 4.44401 7.02228 4.88845L4.88894 7.02179C4.4445 7.46623 4.35561 8.17734 4.62228 8.71068L5.77783 10.9329C5.60005 11.3773 5.42228 11.9107 5.2445 12.3551L2.75561 13.1551C2.22228 13.3329 1.77783 13.8662 1.77783 14.4885V17.5107C1.77783 18.1329 2.22228 18.6662 2.8445 18.844L5.33339 19.644L5.86672 20.9773L4.62228 23.2885C4.35561 23.8218 4.4445 24.5329 4.88894 24.9773L7.02228 27.1107C7.46672 27.5551 8.17783 27.644 8.71117 27.3773L11.0223 26.1329L12.3556 26.6662L13.1556 29.244C13.3334 29.7773 13.8667 30.2218 14.4889 30.2218H17.5112C18.1334 30.2218 18.6667 29.7773 18.8445 29.244L19.6445 26.6662L20.9778 26.1329L23.2889 27.3773C23.8223 27.644 24.5334 27.5551 24.9778 27.1107L27.1112 24.9773C27.5556 24.5329 27.6445 23.8218 27.3778 23.2885L26.1334 20.9773L26.6667 19.644L29.2445 18.844C29.7778 18.6662 30.2223 18.1329 30.2223 17.5107V14.4885C30.2223 13.8662 29.7778 13.244 29.1556 13.0662ZM28.4445 17.244L25.2445 18.2218L25.1556 18.6662L24.3556 20.5329L24.0889 20.9773L25.6889 23.9107L23.9112 25.6885L20.9778 24.0885L20.5334 24.3551C19.9112 24.7107 19.2889 24.9773 18.6667 25.1551L18.2223 25.244L17.2445 28.444H14.7556L13.7778 25.244L13.3334 25.1551L11.4667 24.3551L11.0223 24.0885L8.08894 25.6885L6.31117 23.9107L7.91117 20.9773L7.6445 20.5329C7.28894 19.9107 7.02228 19.2885 6.8445 18.6662L6.75561 18.2218L3.55561 17.244V14.7551L6.57783 13.8662L6.75561 13.4218C6.93339 12.7107 7.20005 12.0885 7.55561 11.4662L7.82228 11.0218L6.31117 8.08846L8.08894 6.31068L10.9334 7.91068L11.3778 7.64401C12.0001 7.28846 12.6223 7.02179 13.3334 6.84401L13.7778 6.66623L14.7556 3.55512H17.2445L18.2223 6.66623L18.6667 6.84401C19.2889 7.02179 19.9112 7.28846 20.5334 7.64401L20.9778 7.91068L23.9112 6.31068L25.6889 8.08846L24.0889 11.0218L24.3556 11.4662C24.7112 12.0885 24.9778 12.7107 25.1556 13.3329L25.2445 13.7773L28.4445 14.7551V17.244Z" fill="currentColor"/>
</g>
<defs>
<clipPath id="clip0_363_9540">
<rect width="32" height="32" fill="currentColor"/>
</clipPath>
</defs>
</svg>
