<svg width="24" height="26" viewBox="0 0 24 26" fill="none" xmlns="http://www.w3.org/2000/svg">
<path d="M16.4805 12.9805C16.4805 11.2105 15.4605 9.69047 13.9805 8.95047V11.1605L16.4305 13.6105C16.4605 13.4105 16.4805 13.2005 16.4805 12.9805ZM18.9805 12.9805C18.9805 13.9205 18.7805 14.8005 18.4405 15.6205L19.9505 17.1305C20.6105 15.8905 20.9805 14.4805 20.9805 12.9805C20.9805 8.70047 17.9905 5.12047 13.9805 4.22047V6.27047C16.8705 7.13047 18.9805 9.81047 18.9805 12.9805ZM4.25047 3.98047L2.98047 5.24047L7.70047 9.97047H2.98047V15.9705H6.98047L11.9805 20.9705V14.2405L16.2305 18.4905C15.5605 19.0105 14.8105 19.4205 13.9805 19.6705V21.7305C15.3605 21.4205 16.6105 20.7805 17.6705 19.9205L19.7105 21.9705L20.9805 20.7005L11.9805 11.7005L4.26047 3.98047H4.25047ZM11.9705 4.97047L9.88047 7.05047L11.9705 9.14047V4.98047V4.97047Z" fill="white"/>
<path d="M14.4277 8.05604L12.9805 7.33244V8.95047V11.1605V11.2863L12.9705 11.2763V9.14047V4.98047V4.97047V2.56442L11.2651 4.26167L9.17506 6.34167L8.6041 6.90989L4.96758 3.27336L4.67468 2.98047H4.26047H4.25047H3.83857L3.54616 3.27057L2.27616 4.53057L1.56421 5.23692L2.27261 5.94683L5.28986 8.97047H2.98047H1.98047V9.97047V15.9705V16.9705H2.98047H6.56625L11.2734 21.6776L12.9805 23.3847V22.98L14.1996 22.7062C15.4329 22.4291 16.5678 21.9175 17.5711 21.2383L19.0016 22.6758L19.7087 23.3864L20.4176 22.6776L21.6876 21.4076L22.3947 20.7005L21.6876 19.9934L20.2987 18.6045L20.8332 17.6003C21.5688 16.2182 21.9805 14.6472 21.9805 12.9805C21.9805 8.22314 18.6568 4.24513 14.1995 3.24474L12.9805 2.97115V4.22047V6.27047V7.01623L13.6953 7.22893C16.1729 7.96623 17.9805 10.265 17.9805 12.9805C17.9805 13.7749 17.8121 14.5251 17.5167 15.2375L17.3452 15.651L17.1629 15.4687L17.4194 13.7588C17.4549 13.5219 17.4805 13.2611 17.4805 12.9805C17.4805 10.8136 16.23 8.9572 14.4277 8.05604ZM12.9805 18.9273V16.6547L14.6491 18.3233C14.3429 18.482 14.0239 18.613 13.6921 18.713L12.9805 18.9273Z" stroke="black" stroke-opacity="0.15" stroke-width="2"/>
</svg>
