<svg width="22" height="26" viewBox="0 0 22 26" fill="none" xmlns="http://www.w3.org/2000/svg">
<path d="M2 16.0005H6L11 21.0005V5.00047L6 10.0005H2V16.0005ZM13 9.00047V17.0005C14.48 16.3205 15.5 14.7705 15.5 13.0005C15.5 11.2605 14.48 9.74047 13 9.00047ZM13 6.29047C15.89 7.15047 18 9.83047 18 13.0005C18 16.1705 15.89 18.8505 13 19.7105V21.7705C17.01 20.8605 20 17.2805 20 13.0005C20 8.72047 17.01 5.14047 13 4.23047V6.29047Z" fill="white"/>
<path d="M1 16.0005V17.0005H2H5.58579L10.2929 21.7076L12 23.4147V23.0228L13.2213 22.7457C17.6762 21.7347 21 17.7582 21 13.0005C21 8.2427 17.6762 4.26622 13.2213 3.25526L12 2.97811V2.58626L10.2929 4.29336L5.58579 9.00047H2H1V10.0005V16.0005ZM13.4472 8.10604L12 7.38244V7.03623L12.7148 7.24893C15.1924 7.98623 17 10.285 17 13.0005C17 15.7159 15.1924 18.0147 12.7148 18.752L12 18.9647V18.5604L13.4175 17.9091C15.2594 17.0629 16.5 15.1534 16.5 13.0005C16.5 10.8599 15.246 9.00544 13.4472 8.10604Z" stroke="black" stroke-opacity="0.15" stroke-width="2"/>
</svg>
