<svg width="31" height="32" viewBox="0 0 31 32" fill="none" xmlns="http://www.w3.org/2000/svg">
<path d="M29.9858 16.0001C29.9858 24.1136 23.4085 30.6909 15.295 30.6909C7.18147 30.6909 0.604175 24.1136 0.604175 16.0001C0.604175 7.88655 7.18147 1.30925 15.295 1.30925C23.4085 1.30925 29.9858 7.88655 29.9858 16.0001Z" fill="#E68AF2" stroke="white" stroke-width="1.10874"/>
<path d="M11.4179 21.2969V14.9371H9.35562V13.7397C10.7216 13.6865 11.4888 13.1454 11.6574 12.1165H13.2406V21.2969H11.4179ZM14.6634 21.2969C14.6811 20.7558 14.8098 20.2458 15.0492 19.7668C15.2887 19.279 15.546 18.8887 15.8209 18.596C16.1048 18.3033 16.4507 17.9973 16.8587 17.6779C17.0006 17.5626 17.2224 17.3941 17.5239 17.1724C17.8344 16.9506 18.065 16.7777 18.2158 16.6535C18.3666 16.5293 18.5351 16.3741 18.7214 16.1878C18.9165 15.9927 19.054 15.7975 19.1338 15.6024C19.2137 15.3984 19.2536 15.1855 19.2536 14.9638C19.2536 14.5291 19.1427 14.1832 18.921 13.926C18.6992 13.6687 18.3888 13.5401 17.9896 13.5401C17.5284 13.5401 17.1647 13.6998 16.8986 14.0191C16.6414 14.3384 16.5083 14.7952 16.4995 15.3895H14.7964C14.7964 14.3251 15.067 13.4958 15.608 12.9015C16.158 12.2983 16.9651 11.9968 18.0295 11.9968C18.9875 11.9968 19.7414 12.2762 20.2914 12.835C20.8502 13.3938 21.1296 14.0856 21.1296 14.9105C21.1296 15.3186 21.0675 15.6911 20.9433 16.0281C20.828 16.3563 20.6417 16.6579 20.3845 16.9329C20.1273 17.2078 19.8967 17.4252 19.6926 17.5848C19.4886 17.7445 19.2048 17.944 18.8411 18.1835C17.8477 18.8222 17.2357 19.3632 17.0051 19.8067H21.2094V21.2969H14.6634Z" fill="white"/>
</svg>
