<svg width="31" height="32" viewBox="0 0 31 32" fill="none" xmlns="http://www.w3.org/2000/svg">
<path d="M29.9858 16.0001C29.9858 24.1136 23.4085 30.6909 15.295 30.6909C7.18147 30.6909 0.604175 24.1136 0.604175 16.0001C0.604175 7.88655 7.18147 1.30925 15.295 1.30925C23.4085 1.30925 29.9858 7.88655 29.9858 16.0001Z" fill="#F69B30" stroke="white" stroke-width="1.10874"/>
<path d="M6.97729 21.2969V14.9371H4.91503V13.7397C6.281 13.6865 7.04825 13.1454 7.21678 12.1165H8.80006V21.2969H6.97729ZM10.2228 21.2969C10.2406 20.7558 10.3692 20.2458 10.6087 19.7668C10.8481 19.279 11.1054 18.8887 11.3803 18.596C11.6642 18.3033 12.0101 17.9973 12.4181 17.6779C12.56 17.5626 12.7818 17.3941 13.0834 17.1724C13.3938 16.9506 13.6244 16.7777 13.7752 16.6535C13.926 16.5293 14.0945 16.3741 14.2808 16.1878C14.4759 15.9927 14.6134 15.7975 14.6932 15.6024C14.7731 15.3984 14.813 15.1855 14.813 14.9638C14.813 14.5291 14.7021 14.1832 14.4804 13.926C14.2586 13.6687 13.9482 13.5401 13.549 13.5401C13.0878 13.5401 12.7241 13.6998 12.458 14.0191C12.2008 14.3384 12.0678 14.7952 12.0589 15.3895H10.3559C10.3559 14.3251 10.6264 13.4958 11.1675 12.9015C11.7174 12.2983 12.5246 11.9968 13.5889 11.9968C14.5469 11.9968 15.3008 12.2762 15.8508 12.835C16.4096 13.3938 16.689 14.0856 16.689 14.9105C16.689 15.3186 16.6269 15.6911 16.5027 16.0281C16.3874 16.3563 16.2011 16.6579 15.9439 16.9329C15.6867 17.2078 15.4561 17.4252 15.2521 17.5848C15.048 17.7445 14.7642 17.944 14.4005 18.1835C13.4071 18.8222 12.7951 19.3632 12.5645 19.8067H16.7688V21.2969H10.2228ZM17.3038 21.2969L20.6167 11.7839H22.6124L25.9653 21.2969H23.9562L23.3176 19.2745H19.8849L19.2596 21.2969H17.3038ZM21.1888 15.0569L20.3373 17.7977H22.8519L22.0004 15.0569L21.6146 13.5934H21.5879C21.4283 14.232 21.2952 14.7198 21.1888 15.0569Z" fill="white"/>
</svg>
