<svg width="31" height="32" viewBox="0 0 31 32" fill="none" xmlns="http://www.w3.org/2000/svg">
<path d="M29.9858 16.0001C29.9858 24.1136 23.4085 30.6909 15.295 30.6909C7.18147 30.6909 0.604175 24.1136 0.604175 16.0001C0.604175 7.88655 7.18147 1.30925 15.295 1.30925C23.4085 1.30925 29.9858 7.88655 29.9858 16.0001Z" fill="#F69B30" stroke="white" stroke-width="1.10874"/>
<path d="M11.0866 21.2969V14.9371H9.0243V13.7397C10.3903 13.6865 11.1575 13.1454 11.326 12.1165H12.9093V21.2969H11.0866ZM18.0042 21.4964C16.931 21.4964 16.044 21.2481 15.3433 20.7514C14.6425 20.2458 14.2922 19.5495 14.2922 18.6625C14.2922 18.1037 14.443 17.6159 14.7445 17.199C15.0461 16.7732 15.4497 16.4628 15.9553 16.2676V16.2277C15.1038 15.8374 14.678 15.2343 14.678 14.4183C14.678 13.6554 14.9796 13.0612 15.5827 12.6354C16.1859 12.2096 16.9886 11.9968 17.9909 11.9968C18.9844 11.9968 19.7738 12.2096 20.3592 12.6354C20.9446 13.0523 21.2373 13.6377 21.2373 14.3916C21.2373 15.2077 20.816 15.8153 19.9733 16.2144V16.2543C20.4789 16.4317 20.8781 16.7289 21.1708 17.1458C21.4724 17.5538 21.6232 18.0327 21.6232 18.5827C21.6232 19.4963 21.2861 20.2103 20.612 20.7248C19.9379 21.2392 19.0686 21.4964 18.0042 21.4964ZM17.9643 20.0329C18.4965 20.0329 18.9267 19.9043 19.2549 19.6471C19.5919 19.381 19.7605 19.0306 19.7605 18.596C19.7605 18.1259 19.6008 17.7533 19.2815 17.4784C18.971 17.1945 18.5409 17.0526 17.9909 17.0526C17.4321 17.0526 16.9886 17.1945 16.6604 17.4784C16.3322 17.7533 16.1682 18.1259 16.1682 18.596C16.1682 19.0395 16.3278 19.3898 16.6471 19.6471C16.9753 19.9043 17.4144 20.0329 17.9643 20.0329ZM17.9643 15.7887C18.4255 15.7887 18.7892 15.6778 19.0553 15.456C19.3303 15.2254 19.4678 14.9283 19.4678 14.5646C19.4678 14.2009 19.3347 13.9127 19.0686 13.6998C18.8025 13.478 18.4344 13.3672 17.9643 13.3672C17.4942 13.3672 17.1217 13.478 16.8467 13.6998C16.5806 13.9127 16.4476 14.2009 16.4476 14.5646C16.4476 14.9283 16.5806 15.2254 16.8467 15.456C17.1217 15.6778 17.4942 15.7887 17.9643 15.7887Z" fill="white"/>
</svg>
