<svg width="37" height="32" viewBox="0 0 37 32" fill="none" xmlns="http://www.w3.org/2000/svg">
<rect x="0.55437" y="1.30925" width="35.4797" height="29.3816" rx="0.55437" fill="#3A83EE" stroke="white" stroke-width="1.10874"/>
<path d="M8.00745 21.2969V11.7839H12.3714C13.2851 11.7839 14.0213 12.0278 14.5801 12.5157C15.1477 13.0035 15.4316 13.6421 15.4316 14.4316C15.4316 15.6467 14.8506 16.414 13.6886 16.7333V16.7732C14.141 16.9063 14.4781 17.1191 14.6998 17.4119C14.9304 17.6957 15.0768 18.1214 15.1389 18.6891C15.1566 18.902 15.1743 19.1548 15.1921 19.4475C15.2187 19.7313 15.2364 19.9575 15.2453 20.126C15.263 20.2946 15.2808 20.4631 15.2985 20.6316C15.3251 20.8002 15.3562 20.9332 15.3917 21.0308C15.436 21.1195 15.4892 21.1771 15.5513 21.2037V21.2969H13.7019C13.6665 21.2791 13.6354 21.2481 13.6088 21.2037C13.5822 21.1505 13.56 21.0796 13.5423 20.9909C13.5245 20.9022 13.5068 20.8135 13.4891 20.7248C13.4802 20.6272 13.4669 20.5075 13.4491 20.3655C13.4403 20.2147 13.4314 20.0861 13.4225 19.9797C13.4137 19.8644 13.4004 19.718 13.3826 19.5406C13.3737 19.3544 13.3649 19.208 13.356 19.1016C13.2762 18.0194 12.6553 17.4784 11.4933 17.4784H9.93666V21.2969H8.00745ZM9.93666 13.3406V15.9882H11.9856C12.4912 15.9882 12.877 15.8685 13.1431 15.629C13.4181 15.3895 13.5556 15.0746 13.5556 14.6844C13.5556 14.2852 13.427 13.9615 13.1697 13.7131C12.9125 13.4647 12.5355 13.3406 12.0388 13.3406H9.93666ZM18.4744 21.2969V14.9371H16.4121V13.7397C17.7781 13.6865 18.5454 13.1454 18.7139 12.1165H20.2972V21.2969H18.4744ZM25.3921 21.4964C24.3188 21.4964 23.4318 21.2481 22.7311 20.7514C22.0304 20.2458 21.68 19.5495 21.68 18.6625C21.68 18.1037 21.8308 17.6159 22.1324 17.199C22.434 16.7732 22.8375 16.4628 23.3431 16.2676V16.2277C22.4916 15.8374 22.0659 15.2343 22.0659 14.4183C22.0659 13.6554 22.3674 13.0612 22.9706 12.6354C23.5737 12.2096 24.3765 11.9968 25.3788 11.9968C26.3722 11.9968 27.1616 12.2096 27.747 12.6354C28.3324 13.0523 28.6252 13.6377 28.6252 14.3916C28.6252 15.2077 28.2038 15.8153 27.3612 16.2144V16.2543C27.8668 16.4317 28.2659 16.7289 28.5586 17.1458C28.8602 17.5538 29.011 18.0327 29.011 18.5827C29.011 19.4963 28.6739 20.2103 27.9998 20.7248C27.3257 21.2392 26.4565 21.4964 25.3921 21.4964ZM25.3522 20.0329C25.8844 20.0329 26.3145 19.9043 26.6427 19.6471C26.9798 19.381 27.1483 19.0306 27.1483 18.596C27.1483 18.1259 26.9887 17.7533 26.6693 17.4784C26.3589 17.1945 25.9287 17.0526 25.3788 17.0526C24.82 17.0526 24.3765 17.1945 24.0483 17.4784C23.7201 17.7533 23.556 18.1259 23.556 18.596C23.556 19.0395 23.7157 19.3898 24.035 19.6471C24.3632 19.9043 24.8022 20.0329 25.3522 20.0329ZM25.3522 15.7887C25.8134 15.7887 26.1771 15.6778 26.4432 15.456C26.7181 15.2254 26.8556 14.9283 26.8556 14.5646C26.8556 14.2009 26.7226 13.9127 26.4565 13.6998C26.1904 13.478 25.8223 13.3672 25.3522 13.3672C24.8821 13.3672 24.5095 13.478 24.2345 13.6998C23.9684 13.9127 23.8354 14.2009 23.8354 14.5646C23.8354 14.9283 23.9684 15.2254 24.2345 15.456C24.5095 15.6778 24.8821 15.7887 25.3522 15.7887Z" fill="white"/>
</svg>
